<svg id="Capa_1" enable-background="new 0 0 512 512" height="512" viewBox="0 0 512 512" width="512" xmlns="http://www.w3.org/2000/svg" xmlns:xlink="http://www.w3.org/1999/xlink"><linearGradient id="SVGID_1_" gradientUnits="userSpaceOnUse" x1="248.5" x2="248.5" y1="496" y2="0"><stop offset="0" stop-color="#fd5900"/><stop offset="1" stop-color="#ffde00"/></linearGradient><linearGradient id="SVGID_2_" gradientUnits="userSpaceOnUse" x1="309" x2="309" y1="512" y2="106"><stop offset="0" stop-color="#ffe59a"/><stop offset="1" stop-color="#ffffd5"/></linearGradient><g><g><g><path d="m376 256c-7.934 0-15.657.866-23.165 2.342l7.02-16.946c2.813-6.768.293-14.59-5.918-18.472l-25.563-15.956c1.491-8.472 2.626-17.076 2.626-25.968 0-8.41-1.146-16.523-2.483-24.56l25.421-15.864c6.211-3.882 8.73-11.689 5.918-18.472l-13.242-31.963c-2.813-6.768-10.195-10.576-17.227-8.877l-31.225 7.227c-7.225-9.13-15.414-17.322-24.536-24.558l7.095-31.677c1.641-7.148-2.109-14.443-8.877-17.241l-31.933-13.856c-6.797-2.827-14.561-.337-18.457 5.903l-15.518 25.459c-8.154-1.376-16.397-2.521-24.936-2.521-8.547 0-16.8 1.143-24.961 2.523l-15.492-25.446c-3.896-6.24-11.689-8.716-18.457-5.918l-31.934 13.856c-6.768 2.798-10.518 10.093-8.877 17.241l7.092 31.681c-9.12 7.234-18.309 15.427-25.534 24.554l-31.223-7.227c-7.061-1.699-14.414 2.109-17.227 8.877l-13.242 31.963c-2.813 6.782-.293 14.59 5.918 18.472l25.421 15.859c-1.339 8.038-2.484 16.153-2.484 24.565 0 8.894 1.133 17.498 2.626 25.97l-25.563 15.954c-6.211 3.882-8.73 11.689-5.918 18.472l13.242 31.963c2.906 6.978 10.393 10.496 17.227 8.877l32.265-7.467c7.013 8.665 15.874 16.478 24.617 23.397l-7.216 31.238c-1.641 7.134 2.109 14.429 8.877 17.227l31.934 13.228c6.76 2.798 14.566.319 18.457-5.903l15.895-25.437c8.036 1.335 16.147 2.481 24.557 2.481 8.417 0 16.536-1.146 24.58-2.485l15.873 25.424c3.895 6.25 11.708 8.712 18.457 5.918l18.497-7.661c-1.555 7.7-2.407 15.652-2.407 23.804 0 66.167 53.818 120 120 120s121-53.833 121-120-54.818-120-121-120z" fill="url(#SVGID_1_)"/></g></g><g><g><path d="m181 106c-41.367 0-75 33.647-75 75s33.633 75 75 75 75-33.647 75-75-33.632-75-75-75zm195 135c-74.443 0-135 60.557-135 135s60.557 136 135 136 136-61.557 136-136-61.556-135-136-135zm0 210c-8.284 0-15-6.716-15-15 0-8.286 6.716-15 15-15s15 6.714 15 15c0 8.284-6.716 15-15 15zm15-75c0 8.291-6.709 15-15 15s-15-6.709-15-15v-60c0-8.291 6.709-15 15-15s15 6.709 15 15z" fill="url(#SVGID_2_)"/></g></g></g></svg>